<svg width="52" height="19" viewBox="0 0 52 19" fill="none" xmlns="http://www.w3.org/2000/svg">
<g filter="url(#filter0_d_1_2)">
<path d="M4.45703 11V0.6875H7.18164C7.75195 0.6875 8.20312 0.814453 8.53516 1.06836C8.87109 1.32227 9.11133 1.68359 9.25586 2.15234C9.40039 2.62109 9.47266 3.17969 9.47266 3.82812C9.47266 4.45312 9.41211 4.99805 9.29102 5.46289C9.16992 5.92383 8.95312 6.28125 8.64062 6.53516C8.33203 6.78906 7.89258 6.91602 7.32227 6.91602H6.48438V11H4.45703ZM6.48438 5.06445H6.60156C6.98438 5.06445 7.21875 4.95703 7.30469 4.74219C7.39062 4.52734 7.43359 4.21094 7.43359 3.79297C7.43359 3.40234 7.39062 3.10156 7.30469 2.89062C7.22266 2.67578 7.02539 2.56836 6.71289 2.56836H6.48438V5.06445ZM45.7434 10.9941V9.24805H47.841V10.9941H45.7434Z" fill="#FF0000"/>
<path d="M10.6089 11V0.6875H12.6714V9.24219H14.7925V11H10.6089ZM15.5772 11L16.5733 0.6875H20.0713L21.0498 11H19.0987L18.9522 9.33594H17.71L17.5811 11H15.5772ZM17.8565 7.68945H18.794L18.3428 2.44531H18.2491L17.8565 7.68945ZM22.1627 11V0.6875H24.9576C25.7076 0.6875 26.2525 0.871094 26.5923 1.23828C26.9361 1.60156 27.108 2.20312 27.108 3.04297V3.49414C27.108 3.97852 27.0201 4.37109 26.8443 4.67188C26.6724 4.97266 26.4088 5.16992 26.0533 5.26367C26.5181 5.38086 26.8287 5.65625 26.9849 6.08984C27.1451 6.51953 27.2252 7.04492 27.2252 7.66602C27.2252 8.33398 27.1627 8.91797 27.0377 9.41797C26.9127 9.91797 26.6861 10.3066 26.358 10.584C26.0298 10.8613 25.563 11 24.9576 11H22.1627ZM24.1783 4.57227H24.6002C24.7916 4.57227 24.9146 4.49805 24.9693 4.34961C25.024 4.20117 25.0513 4.02344 25.0513 3.81641V2.7793C25.0513 2.44727 24.9048 2.28125 24.6119 2.28125H24.1783V4.57227ZM24.3834 9.18359C24.9185 9.18359 25.1861 8.92969 25.1861 8.42188V7.13281C25.1861 6.83984 25.1412 6.60938 25.0513 6.44141C24.9654 6.26953 24.8013 6.18359 24.5591 6.18359H24.1783V9.17188C24.2642 9.17969 24.3326 9.18359 24.3834 9.18359ZM28.1036 11L29.0997 0.6875H32.5977L33.5763 11H31.6251L31.4786 9.33594H30.2364L30.1075 11H28.1036ZM30.3829 7.68945H31.3204L30.8692 2.44531H30.7755L30.3829 7.68945ZM34.6891 11V0.6875H36.8102L37.7594 5.62695V0.6875H39.7516V11H37.7359L36.7047 5.84375V11H34.6891Z" fill="white"/>
</g>
<defs>
<filter id="filter0_d_1_2" x="0.457031" y="0.6875" width="51.384" height="18.3125" filterUnits="userSpaceOnUse" color-interpolation-filters="sRGB">
<feFlood flood-opacity="0" result="BackgroundImageFix"/>
<feColorMatrix in="SourceAlpha" type="matrix" values="0 0 0 0 0 0 0 0 0 0 0 0 0 0 0 0 0 0 127 0" result="hardAlpha"/>
<feOffset dy="4"/>
<feGaussianBlur stdDeviation="2"/>
<feComposite in2="hardAlpha" operator="out"/>
<feColorMatrix type="matrix" values="0 0 0 0 0 0 0 0 0 0 0 0 0 0 0 0 0 0 0.25 0"/>
<feBlend mode="normal" in2="BackgroundImageFix" result="effect1_dropShadow_1_2"/>
<feBlend mode="normal" in="SourceGraphic" in2="effect1_dropShadow_1_2" result="shape"/>
</filter>
</defs>
</svg>
